# AST/ASF file generated using VICON BodyLanguage
# -----------------------------------------------
:version 1.10
:name VICON
:units
  mass 1.0
  length 0.45
  angle deg
:documentation
   .ast/.asf automatically generated from VICON data using
   VICON BodyBuilder and BodyLanguage model FoxedUp or BRILLIANT.MOD
:root
   order TX TY TZ RX RY RZ
   axis XYZ
   position 0 0 0  
   orientation 0 0 0 
:bonedata
  begin
     id 1 
     name lhipjoint
     direction 0.702568 -0.596508 0.388042 
     length 2.56661 
     axis 0 0 0  XYZ
  end
  begin
     id 2 
     name lfemur
     direction 0.34202 -0.939693 0  
     length 6.58374  
     axis 0 0 20  XYZ
    dof rx ry rz
    limits (-160.0 20.0)
           (-70.0 70.0)
           (-60.0 70.0)
  end
  begin
     id 3 
     name ltibia
     direction 0.34202 -0.939693 0   
     length 6.62538   
     axis 0 0 20   XYZ
    dof rx
    limits (-10.0 170.0)
  end
  begin
     id 4 
     name lfoot
     direction 0.10455 -0.287249 0.952133   
     length 2.26699   
     axis -90 7.62852e-016 20   XYZ
    dof rx rz
    limits (-45.0 90.0)
           (-70.0 20.0)
  end
  begin
     id 5 
     name ltoes
     direction 1.53572e-011 -4.22322e-011 1   
     length 1.12949   
     axis -90 7.62852e-016 20   XYZ
    dof rx
    limits (-90.0 20.0)
  end
  begin
     id 6 
     name rhipjoint
     direction -0.728055 -0.574632 0.373811   
     length 2.66432  
     axis 0 0 0  XYZ 
  end
  begin
     id 7 
     name rfemur
     direction -0.34202 -0.939693 0   
     length 6.66732   
     axis 0 0 -20   XYZ
    dof rx ry rz
    limits (-160.0 20.0)
           (-70.0 70.0)
           (-70.0 60.0)
  end
  begin
     id 8 
     name rtibia
     direction -0.34202 -0.939693 0   
     length 6.59288   
     axis 0 0 -20   XYZ
    dof rx
    limits (-10.0 170.0)
 end
 begin
     id 9 
     name rfoot
     direction -0.119193 -0.327479 0.93731   
     length 2.38061  
     axis -90 -7.62852e-016 -20   XYZ
    dof rx rz
    limits (-45.0 90.0)
           (-20.0 70.0)
  end
  begin
     id 10 
     name rtoes
     direction -1.53547e-011 -4.21827e-011 1   
     length 1.17899   
     axis -90 -7.62852e-016 -20   XYZ
    dof rx
    limits (-90.0 20.0)
  end
  begin
     id 11 
     name lowerback
     direction -0.000416114 0.999912 -0.0132284   
     length 2.12109   
     axis 0 0 0   XYZ
    dof rx ry rz
    limits (-20.0 45.0)
           (-30.0 30.0)
           (-30.0 30.0)
  end
  begin
     id 12 
     name upperback
     direction -0.00136371 0.99809 0.0617608   
     length 2.10067   
     axis 0 0 0   XYZ
    dof rx ry rz
    limits (-20.0 45.0)
           (-30.0 30.0)
           (-30.0 30.0)
  end
  begin
     id 13 
     name thorax
     direction -3.43026e-005 0.997776 0.0666515   
     length 2.10618   
     axis 0 0 0   XYZ
    dof rx ry rz
    limits (-20.0 45.0)
           (-30.0 30.0)
           (-30.0 30.0)
  end
  begin
     id 14 
     name lowerneck
     direction 0.0398646 0.998418 0.0396592   
     length 1.83817   
     axis 0 0 0   XYZ
    dof rx ry rz
    limits (-20.0 45.0)
           (-30.0 30.0)
           (-30.0 30.0)
  end
  begin
     id 15 
     name upperneck
     direction -0.0367268 0.961527 -0.272244   
     length 1.81975   
     axis 0 0 0   XYZ
    dof rx ry rz
    limits (-20.0 45.0)
           (-30.0 30.0)
           (-30.0 30.0)
  end
  begin
     id 16
     name head
     direction -0.0182665 0.99536 -0.0944669  
     length 1.86026  
     axis 0 0 0   XYZ
    dof rx ry rz
    limits (-20.0 45.0)
           (-30.0 30.0)
           (-30.0 30.0)
  end
  begin
     id 17 
     name lclavicle
     direction 0.924239 0.361045 0.124212  
     length 3.26878  
     axis 0 0 0   XYZ
    dof ry rz
    limits (-20.0 10.0)
           (0.0 20.0)
  end
  begin
     id 18 
     name lhumerus
     direction 1 -4.48968e-011 -2.56583e-027   
     length 4.58538   
     axis 180 -30 -90   XYZ
    dof rx ry rz
    limits (-60.0 90.0)
           (-90.0 90.0)
           (-90.0 90.0)
  end
  begin
     id 19
     name lradius
     direction 1 -4.4898e-011 -5.50375e-027   
     length 2.68935   
     axis 180 -30 -90   XYZ
    dof rx
    limits (-10.0 170.0)
  end
  begin
     id 20
     name lwrist
     direction 1 -4.48939e-011 -1.48955e-026   
     length 1.34468   
     axis 9.0955e-015 90 90   XYZ
    dof ry
    limits (-180.0 0.0)
 end
  begin
     id 21 
     name lhand
     direction 1 -4.48936e-011 -2.97907e-026   
     length 0.585058   
     axis 1.90115e-014 90 90   XYZ
    dof rx rz
    limits (-90.0 90.0)
           (-45.0 45.0)
  end
  begin
     id 22 
     name lfingers
     direction 1 -4.49082e-011 -5.96235e-026   
     length 0.471689   
     axis 3.80223e-014 90 90   XYZ
    dof rx
    limits (0.0 90.0)
  end
  begin
     id 23
     name lthumb
     direction 0.707107 -6.3489e-011 0.707107   
     length 0.677253   
     axis -90 45 -3.84942e-014   XYZ
    dof rx rz
    limits (-45.0 45.0)
           (-45.0 45.0)
  end
  begin
     id 24 
     name rclavicle
     direction -0.923098 0.371783 0.0983239   
     length 3.19656  
     axis 0 0 0   XYZ 
    dof ry rz
    limits (-10.0 20.0)
           (-20.0 0.0)
  end
  begin
     id 25 
     name rhumerus
     direction -1 -4.48976e-011 -2.5492e-027  
     length 4.4745   
     axis 180 30 90   XYZ
    dof rx ry rz
    limits (-90.0 60.0)
           (-90.0 90.0)
           (-90.0 90.0)
  end
  begin
     id 26 
     name rradius
     direction -1 -4.48941e-011 -4.36555e-027   
     length 2.93896   
     axis 180 30 90   XYZ
    dof rx
    limits (-10.0 170.0)
  end
  begin
     id 27 
     name rwrist
     direction -1 -4.49044e-011 -1.49032e-026   
     length 1.46948   
     axis 9.0955e-015 -90 -90   XYZ
    dof ry
    limits (-180.0 0.0)
  end
  begin
     id 28
     name rhand
     direction -1 -4.48826e-011 -2.97749e-026   
     length 0.405092   
     axis 1.90115e-014 -90 -90   XYZ
    dof rx rz
    limits (-90.0 90.0)
           (-45.0 45.0)
  end
  begin
     id 29
     name rfingers
     direction -1 -4.49209e-011 -5.96602e-026   
     length 0.326596   
     axis 3.80223e-014 -90 -90   XYZ
    dof rx
    limits (0.0 90.0)
  end
  begin
     id 30
     name rthumb
     direction -0.707107 -6.34776e-011 0.707107   
     length 0.468928   
     axis -90 -45 3.84942e-014   XYZ
    dof rx rz
    limits (-45.0 45.0)
           (-45.0 45.0)
  end
:hierarchy
  begin
    root lhipjoint rhipjoint lowerback
    lhipjoint lfemur
    lfemur ltibia
    ltibia lfoot
    lfoot ltoes
    rhipjoint rfemur
    rfemur rtibia
    rtibia rfoot
    rfoot rtoes
    lowerback upperback
    upperback thorax
    thorax lowerneck lclavicle rclavicle
    lowerneck upperneck
    upperneck head
    lclavicle lhumerus
    lhumerus lradius
    lradius lwrist
    lwrist lhand lthumb
    lhand lfingers
    rclavicle rhumerus
    rhumerus rradius
    rradius rwrist
    rwrist rhand rthumb
    rhand rfingers
  end

#!OML:ASF H:\Punching\Project 1\Capture day 1\Session 1\female.ASF
:FULLY-SPECIFIED
:DEGREES
548
root -1.9805 14.8366 6.66856 12.964 41.9341 -2.60253
lowerback 3.29611 0.363095 4.38612
upperback -5.32619 0.984937 2.16916
thorax -7.39841 0.330166 -0.279183
lowerneck -6.66976 -4.95579 1.82971
upperneck 28.7559 -8.16611 4.32027
head 10.4029 -2.90963 0.377595
rclavicle -3.03147e-015 -2.38542e-015
rhumerus 12.7123 15.4776 -74.1868
rradius 138.336
rwrist -44.2746
rhand -21.5736 -5.07567
rfingers 7.12502
rthumb 4.82052 -35.0008
lclavicle -3.03147e-015 -2.38542e-015
lhumerus 15.0424 -38.5132 83.7428
lradius 141.824
lwrist 30.1968
lhand -13.1096 25.9224
lfingers 7.12502
lthumb 12.9876 55.4981
rfemur -36.2754 -21.2162 19.4266
rtibia 52.3976
rfoot -22.2693 -16.8958
rtoes -7.9798
lfemur -25.222 -16.8208 12.8795
ltibia 28.9464
lfoot -15.64 -13.0457
ltoes -25.0065
549
root -1.99783 14.8241 6.66727 12.9556 42.9381 -2.45449
lowerback 3.41537 0.524769 4.02435
upperback -5.28401 1.19735 2.36247
thorax -7.42377 0.462239 0.103546
lowerneck -6.74717 -5.18235 1.39583
upperneck 28.5996 -8.41415 4.38047
head 10.3845 -3.06244 0.443544
rclavicle 9.35282e-014 5.56597e-015
rhumerus 12.8111 15.2487 -74.1704
rradius 138.382
rwrist -44.5463
rhand -21.6751 -5.09016
rfingers 7.12502
rthumb 4.72251 -35.0175
lclavicle 9.35282e-014 5.56597e-015
lhumerus 15.0398 -38.6362 83.5727
lradius 141.251
lwrist 30.2669
lhand -13.1554 25.8491
lfingers 7.12502
lthumb 12.9434 55.4277
rfemur -36.1232 -21.3793 19.3298
rtibia 52.7302
rfoot -22.4943 -17.7405
rtoes -7.59934
lfemur -25.3837 -16.9061 12.8625
ltibia 28.3486
lfoot -15.7311 -12.7436
ltoes -24.7234
550
root -2.01286 14.8148 6.6646 13.0152 43.5971 -2.2445
lowerback 3.52846 0.700702 3.63254
upperback -5.22423 1.41805 2.4743
thorax -7.42922 0.597182 0.416428
lowerneck -6.8292 -5.33276 1.11617
upperneck 28.4131 -8.57853 4.43067
head 10.3486 -3.16423 0.488649
rclavicle 4.96962e-014 -2.70347e-014
rhumerus 12.8636 15.1956 -74.3182
rradius 138.443
rwrist -44.7034
rhand -21.716 -5.0421
rfingers 7.12502
rthumb 4.68302 -34.9703
lclavicle 4.96962e-014 -2.70347e-014
lhumerus 15.0385 -38.7269 83.2988
lradius 140.776
lwrist 30.4642
lhand -13.192 25.791
lfingers 7.12502
lthumb 12.9081 55.3718
rfemur -36.0409 -21.234 19.1536
rtibia 53.0203
rfoot -22.6707 -18.5718
rtoes -7.13475
lfemur -25.3345 -16.8946 12.7011
ltibia 27.7119
lfoot -15.8128 -12.3172
ltoes -24.532
551
root -2.02553 14.809 6.66006 13.1585 43.9556 -1.95796
lowerback 3.64129 0.881959 3.24407
upperback -5.15584 1.63632 2.47984
thorax -7.42597 0.726605 0.61588
lowerneck -6.92807 -5.41711 0.99485
upperneck 28.2126 -8.68345 4.49953
head 10.3045 -3.22151 0.519505
rclavicle 1.38155e-014 1.59028e-015
rhumerus 12.8663 15.276 -74.6299
rradius 138.502
rwrist -44.7254
rhand -21.6986 -4.94291
rfingers 7.12502
rthumb 4.6998 -34.8708
lclavicle 1.38155e-014 1.59028e-015
lhumerus 15.044 -38.7978 82.9372
lradius 140.378
lwrist 30.7336
lhand -13.2599 25.7887
lfingers 7.12502
lthumb 12.8427 55.3736
rfemur -36.032 -20.8534 18.8924
rtibia 53.2716
rfoot -22.8017 -19.3501
rtoes -6.59642
lfemur -25.1237 -16.8162 12.4096
ltibia 27.047
lfoot -15.8578 -11.8047
ltoes -24.397
552
root -2.03575 14.8068 6.65308 13.3905 44.0399 -1.60252
lowerback 3.72926 1.0653 2.86713
upperback -5.07725 1.84767 2.38436
thorax -7.39648 0.848242 0.703811
lowerneck -7.04061 -5.44262 1.0103
upperneck 27.9976 -8.73882 4.60068
head 10.253 -3.23975 0.543647
rclavicle -9.54166e-015 -1.98785e-014
rhumerus 12.834 15.4674 -75.0785
rradius 138.543
rwrist -44.6121
rhand -21.6178 -4.80313
rfingers 7.12502
rthumb 4.77783 -34.7293
lclavicle -9.54166e-015 -1.98785e-014
lhumerus 15.0861 -38.8421 82.5098
lradius 140.039
lwrist 31.0213
lhand -13.4282 25.8803
lfingers 7.12502
lthumb 12.6804 55.4753
rfemur -36.1112 -20.2903 18.5581
rtibia 53.4844
rfoot -22.8814 -20.0421
rtoes -6.03365
lfemur -24.791 -16.6855 12.0126
ltibia 26.3633
lfoot -15.8611 -11.2378
ltoes -24.3146
553
root -2.04323 14.808 6.64363 13.7169 43.872 -1.18642
lowerback 3.7821 1.2422 2.49824
upperback -5.00488 2.04221 2.197
thorax -7.35156 0.957761 0.69331
lowerneck -7.15065 -5.40951 1.16086
upperneck 27.7866 -8.73925 4.7139
head 10.1963 -3.21847 0.555391
rclavicle 1.98785e-016 -1.82882e-014
rhumerus 12.7577 15.7654 -75.6473
rradius 138.55
rwrist -44.3719
rhand -21.4886 -4.64186
rfingers 7.12502
rthumb 4.90258 -34.5651
lclavicle 1.98785e-016 -1.82882e-014
lhumerus 15.1444 -38.8433 82.0522
lradius 139.736
lwrist 31.2616
lhand -13.7236 26.0702
lfingers 7.12502
lthumb 12.3956 55.6827
rfemur -36.2944 -19.5939 18.161
rtibia 53.659
rfoot -22.9042 -20.6244
rtoes -5.4756
lfemur -24.3706 -16.5157 11.5307
ltibia 25.6642
lfoot -15.8263 -10.6325
ltoes -24.285
554
root -2.04663 14.8128 6.63092 14.1177 43.4927 -0.738285
lowerback 3.78176 1.39233 2.15815
upperback -4.93465 2.19593 1.94142
thorax -7.27557 1.04338 0.600939
lowerneck -7.27114 -5.31095 1.41582
upperneck 27.6012 -8.67135 4.83634
head 10.1461 -3.15393 0.559842
rclavicle 3.12092e-014 -3.73715e-014
rhumerus 12.6756 16.1649 -76.3012
rradius 138.509
rwrist -44.0524
rhand -21.3237 -4.47956
rfingers 7.12502
rthumb 5.06183 -34.3991
lclavicle 3.12092e-014 -3.73715e-014
lhumerus 15.2534 -38.7597 81.5725
lradius 139.426
lwrist 31.399
lhand -14.1644 26.352
lfingers 7.12502
lthumb 11.9706 55.9897
rfemur -36.5677 -18.8493 17.72
rtibia 53.7874
rfoot -22.8641 -21.0507
rtoes -4.96656
lfemur -23.8849 -16.3256 10.9902
ltibia 24.952
lfoot -15.7743 -9.9978
ltoes -24.3435
555
root -2.04724 14.8205 6.61565 14.5637 42.8944 -0.301265
lowerback 3.74599 1.51921 1.83182
upperback -4.88559 2.31689 1.64299
thorax -7.20006 1.11071 0.460664
lowerneck -7.39511 -5.1451 1.77852
upperneck 27.4715 -8.52244 4.92149
head 10.1093 -3.04379 0.541751
rclavicle 3.12092e-014 -1.35174e-014
rhumerus 12.5561 16.6745 -77.0263
rradius 138.424
rwrist -43.645
rhand -21.1562 -4.33002
rfingers 7.12502
rthumb 5.22357 -34.2456
lclavicle 3.12092e-014 -1.35174e-014
lhumerus 15.3634 -38.5841 81.1093
lradius 139.085
lwrist 31.3738
lhand -14.7181 26.6828
lfingers 7.12502
lthumb 11.4366 56.3509
rfemur -36.9418 -18.0372 17.2709
rtibia 53.8613
rfoot -22.7515 -21.3333
rtoes -4.53479
lfemur -23.3343 -16.0917 10.4275
ltibia 24.2249
lfoot -15.7044 -9.32977
ltoes -24.49
556
root -2.04494 14.8306 6.59781 15.0192 42.0745 0.0885797
lowerback 3.67829 1.61792 1.50778
upperback -4.85797 2.40058 1.33357
thorax -7.12892 1.15931 0.312626
lowerneck -7.51678 -4.90253 2.23283
upperneck 27.4142 -8.272 4.94682
head 10.0908 -2.88197 0.498298
rclavicle -4.99943e-014 -2.38542e-015
rhumerus 12.3989 17.293 -77.8058
rradius 138.294
rwrist -43.179
rhand -20.9434 -4.18857
rfingers 7.12502
rthumb 5.42896 -34.099
lclavicle -4.99943e-014 -2.38542e-015
lhumerus 15.4491 -38.27 80.6694
lradius 138.695
lwrist 31.1577
lhand -15.3119 27.0543
lfingers 7.12502
lthumb 10.8639 56.7533
rfemur -37.4025 -17.1622 16.8344
rtibia 53.8674
rfoot -22.5633 -21.4645
rtoes -4.17564
lfemur -22.7053 -15.8117 9.86255
ltibia 23.4849
lfoot -15.6319 -8.61689
ltoes -24.7454
557
root -2.03855 14.8432 6.57826 15.4462 41.0345 0.403487
lowerback 3.58458 1.68639 1.20253
upperback -4.84928 2.44649 1.02498
thorax -7.06273 1.18847 0.159729
lowerneck -7.64186 -4.57723 2.78457
upperneck 27.4439 -7.90689 4.88307
head 10.0965 -2.66416 0.419439
rclavicle 2.21645e-014 -3.18055e-014
rhumerus 12.1955 18.0251 -78.6173
rradius 138.132
rwrist -42.6459
rhand -20.751 -4.04471
rfingers 7.12502
rthumb 5.61473 -33.9503
lclavicle 2.21645e-014 -3.18055e-014
lhumerus 15.5085 -37.7937 80.2482
lradius 138.226
lwrist 30.7445
lhand -15.846 27.4097
lfingers 7.12502
lthumb 10.3487 57.135
rfemur -37.915 -16.2412 16.4228
rtibia 53.7908
rfoot -22.3003 -21.4218
rtoes -3.90617
lfemur -21.9704 -15.5005 9.30563
ltibia 22.7325
lfoot -15.5721 -7.86835
ltoes -25.0635
558
root -2.02773 14.8579 6.55634 15.8218 39.7582 0.630044
lowerback 3.44907 1.71937 0.901388
upperback -4.833 2.44741 0.744122
thorax -6.96582 1.19639 0.0397203
lowerneck -7.7752 -4.15314 3.41475
upperneck 27.536 -7.39786 4.71744
head 10.1204 -2.38159 0.306707
rclavicle -4.31363e-014 3.18055e-015
rhumerus 11.9943 18.8779 -79.4237
rradius 137.939
rwrist -42.0651
rhand -20.5388 -3.88046
rfingers 7.12502
rthumb 5.81966 -33.7805
lclavicle -4.31363e-014 3.18055e-015
lhumerus 15.5672 -37.0914 79.8269
lradius 137.646
lwrist 30.1358
lhand -16.242 27.7015
lfingers 7.12502
lthumb 9.9667 57.4456
rfemur -38.4669 -15.2662 16.0404
rtibia 53.6209
rfoot -21.9527 -21.2046
rtoes -3.73042
lfemur -21.1057 -15.1695 8.75531
ltibia 21.9766
lfoot -15.5419 -7.0547
ltoes -25.4701
559
root -2.01215 14.8743 6.53336 16.1179 38.2263 0.733071
lowerback 3.29968 1.73652 0.631583
upperback -4.82995 2.43263 0.486695
thorax -6.87519 1.19566 -0.0713333
lowerneck -7.89947 -3.64155 4.12931
upperneck 27.697 -6.76379 4.46138
head 10.1659 -2.0408 0.161348
rclavicle -1.08686e-013 -5.88403e-014
rhumerus 11.7486 19.8026 -80.2159
rradius 137.727
rwrist -41.4237
rhand -20.3286 -3.70568
rfingers 7.12502
rthumb 6.02256 -33.6001
lclavicle -1.08686e-013 -5.88403e-014
lhumerus 15.6216 -36.1847 79.4143
lradius 136.918
lwrist 29.3673
lhand -16.3882 28.0111
lfingers 7.12502
lthumb 9.82561 57.7618
rfemur -39.0453 -14.2044 15.7156
rtibia 53.3486
rfoot -21.5329 -20.8075
rtoes -3.61689
lfemur -20.0917 -14.8155 8.23354
ltibia 21.2265
lfoot -15.5506 -6.17097
ltoes -25.9406
